<svg width="1728" height="1934" viewBox="0 0 1728 1934" fill="none" xmlns="http://www.w3.org/2000/svg">
<path opacity="0.0144928" d="M1752.23 1634.65C1761.29 1639.45 1772.43 1637.69 1779.55 1630.32L2005.89 1396.24C2010.1 1391.88 2012.42 1386.04 2012.35 1379.97L2006.73 913.909C2006.67 909.142 2005.14 904.511 2002.33 900.656L1762.19 570.549C1757.1 563.559 1748.53 560.011 1739.99 561.363L1459.54 605.782C1451 607.134 1443.94 613.159 1441.27 621.378L1314.88 1009.54C1313.41 1014.07 1313.37 1018.95 1314.79 1023.5L1453.47 1468.49C1455.28 1474.28 1459.29 1479.12 1464.65 1481.96L1752.23 1634.65Z" stroke="url(#paint0_linear_8_556)" stroke-width="4"/>
<path opacity="0.0289855" d="M1701.08 1633.16C1709.86 1638.4 1721.04 1637.23 1728.53 1630.27L1965.45 1410.33C1969.9 1406.2 1972.53 1400.47 1972.78 1394.41L1991.61 932.976C1991.8 928.198 1990.5 923.478 1987.89 919.473L1766.81 580.496C1762.09 573.265 1753.73 569.284 1745.14 570.186L1464.43 599.69C1455.84 600.593 1448.49 606.227 1445.38 614.28L1299.6 991.815C1297.88 996.276 1297.59 1001.16 1298.78 1005.8L1413.13 1453.23C1414.63 1459.11 1418.4 1464.16 1423.61 1467.27L1701.08 1633.16Z" stroke="url(#paint1_linear_8_556)" stroke-width="4"/>
<path opacity="0.0434783" d="M1650.32 1630.12C1658.8 1635.79 1669.99 1635.2 1677.83 1628.68L1924.47 1423.33C1929.14 1419.44 1932.09 1413.85 1932.65 1407.8L1975.43 952.271C1975.88 947.496 1974.82 942.7 1972.41 938.555L1770.66 591.788C1766.32 584.336 1758.19 579.935 1749.58 580.386L1469.39 595.07C1460.78 595.521 1453.15 600.749 1449.61 608.613L1285.21 974.569C1283.25 978.944 1282.7 983.824 1283.65 988.526L1373.8 1437.09C1375 1443.05 1378.51 1448.29 1383.56 1451.67L1650.32 1630.12Z" stroke="url(#paint2_linear_8_556)" stroke-width="4"/>
<path opacity="0.057971" d="M1600.04 1625.56C1608.19 1631.64 1619.37 1631.64 1627.52 1625.56L1883.02 1435.22C1887.9 1431.58 1891.15 1426.15 1892.03 1420.13L1958.19 971.737C1958.89 966.977 1958.09 962.117 1955.88 957.841L1773.67 604.37C1769.72 596.717 1761.83 591.909 1753.22 591.909L1474.34 591.909C1465.73 591.909 1457.84 596.717 1453.9 604.37L1271.68 957.841C1269.48 962.117 1268.67 966.977 1269.37 971.737L1335.53 1420.13C1336.42 1426.15 1339.66 1431.58 1344.54 1435.22L1600.04 1625.56Z" stroke="url(#paint3_linear_8_556)" stroke-width="4"/>
<path opacity="0.0724638" d="M1550.31 1619.54C1558.13 1626 1569.25 1626.58 1577.7 1620.97L1841.16 1445.99C1846.24 1442.62 1849.77 1437.36 1850.98 1431.39L1939.89 991.313C1940.84 986.582 1940.29 981.671 1938.3 977.274L1775.77 618.184C1772.22 610.351 1764.6 605.149 1756.02 604.699L1479.2 590.192C1470.62 589.742 1462.5 594.119 1458.15 601.538L1258.97 941.672C1256.54 945.837 1255.47 950.663 1255.92 955.468L1298.35 1402.42C1298.92 1408.49 1301.89 1414.09 1306.58 1417.97L1550.31 1619.54Z" stroke="url(#paint4_linear_8_556)" stroke-width="4"/>
<path opacity="0.0869565" d="M1501.22 1612.08C1508.67 1618.91 1519.71 1620.07 1528.43 1614.94L1798.95 1455.63C1804.22 1452.53 1808.03 1447.47 1809.55 1441.55L1920.53 1010.94C1921.73 1006.25 1921.43 1001.3 1919.66 996.796L1776.9 633.169C1773.76 625.176 1766.43 619.597 1757.89 618.7L1483.9 589.901C1475.36 589.004 1467.03 592.937 1462.3 600.103L1247.05 926.102C1244.39 930.143 1243.06 934.922 1243.27 939.759L1262.29 1384.03C1262.55 1390.13 1265.22 1395.88 1269.73 1400.01L1501.22 1612.08Z" stroke="url(#paint5_linear_8_556)" stroke-width="4"/>
<path opacity="0.101449" d="M1452.83 1603.24C1459.91 1610.42 1470.83 1612.15 1479.78 1607.51L1756.46 1464.13C1761.89 1461.32 1765.98 1456.45 1767.81 1450.62L1900.1 1030.56C1901.56 1025.93 1901.52 1020.96 1899.97 1016.35L1777.01 649.26C1774.29 641.13 1767.27 635.19 1758.8 633.849L1488.35 591.013C1479.88 589.672 1471.37 593.152 1466.26 600.043L1235.88 911.168C1232.99 915.071 1231.41 919.79 1231.37 924.647L1227.38 1365.02C1227.32 1371.14 1229.71 1377.03 1234 1381.38L1452.83 1603.24Z" stroke="url(#paint6_linear_8_556)" stroke-width="4"/>
<path opacity="0.115942" d="M1405.21 1593.08C1411.89 1600.59 1422.68 1602.88 1431.84 1598.74L1713.74 1471.49C1719.33 1468.96 1723.67 1464.32 1725.82 1458.58L1878.63 1050.12C1880.34 1045.56 1880.55 1040.57 1879.24 1035.88L1776.04 666.391C1773.74 658.145 1767.05 651.861 1758.67 650.08L1492.48 593.5C1484.11 591.72 1475.44 594.738 1469.98 601.335L1225.42 896.903C1222.32 900.658 1220.48 905.302 1220.18 910.166L1193.65 1345.46C1193.28 1351.58 1195.36 1357.59 1199.44 1362.17L1405.21 1593.08Z" stroke="url(#paint7_linear_8_556)" stroke-width="4"/>
<path opacity="0.130435" d="M1358.42 1581.65C1364.7 1589.46 1375.32 1592.3 1384.66 1588.68L1670.87 1477.7C1676.59 1475.48 1681.19 1471.06 1683.64 1465.44L1856.12 1069.56C1858.07 1065.08 1858.55 1060.09 1857.47 1055.32L1773.96 684.492C1772.08 676.152 1765.73 669.542 1757.47 667.329L1496.23 597.33C1487.97 595.118 1479.17 597.668 1473.37 603.951L1215.63 883.341C1212.32 886.935 1210.23 891.492 1209.68 896.35L1161.12 1325.43C1160.43 1331.53 1162.2 1337.65 1166.05 1342.43L1358.42 1581.65Z" stroke="url(#paint8_linear_8_556)" stroke-width="4"/>
<path opacity="0.144928" d="M1312.54 1569C1318.4 1577.09 1328.81 1580.47 1338.31 1577.37L1627.89 1482.76C1633.74 1480.85 1638.57 1476.69 1641.32 1471.19L1832.58 1088.82C1834.78 1084.44 1835.51 1079.46 1834.68 1074.63L1770.7 703.493C1769.25 695.081 1763.26 688.164 1755.14 685.526L1499.52 602.471C1491.41 599.833 1482.49 601.908 1476.38 607.861L1206.47 870.511C1202.96 873.933 1200.63 878.389 1199.82 883.228L1129.81 1304.99C1128.8 1311.05 1130.26 1317.27 1133.87 1322.24L1312.54 1569Z" stroke="url(#paint9_linear_8_556)" stroke-width="4"/>
<path opacity="0.15942" d="M1267.61 1555.2C1273.04 1563.55 1283.22 1567.46 1292.84 1564.88L1584.89 1486.69C1590.83 1485.1 1595.89 1481.19 1598.93 1475.84L1808.03 1107.86C1810.47 1103.58 1811.46 1098.63 1810.87 1093.74L1766.24 723.32C1765.22 714.858 1759.6 707.653 1751.65 704.599L1502.3 608.882C1494.34 605.828 1485.34 607.424 1478.92 613.03L1197.89 858.441C1194.19 861.679 1191.62 866.021 1190.56 870.829L1099.72 1284.21C1098.4 1290.22 1099.54 1296.51 1102.9 1301.68L1267.61 1555.2Z" stroke="url(#paint10_linear_8_556)" stroke-width="4"/>
<path opacity="0.173913" d="M1223.69 1540.31C1228.68 1548.9 1238.61 1553.32 1248.32 1551.27L1541.9 1489.5C1547.94 1488.23 1553.21 1484.59 1556.53 1479.4L1782.5 1126.6C1785.16 1122.44 1786.42 1117.54 1786.07 1112.61L1760.53 743.898C1759.95 735.408 1754.72 727.937 1746.94 724.475L1504.48 616.524C1496.71 613.062 1487.66 614.176 1480.95 619.42L1189.86 847.155C1185.97 850.199 1183.16 854.415 1181.85 859.178L1070.87 1263.17C1069.24 1269.11 1070.06 1275.47 1073.16 1280.8L1223.69 1540.31Z" stroke="url(#paint11_linear_8_556)" stroke-width="4"/>
<path opacity="0.188406" d="M1180.84 1524.4C1185.36 1533.2 1195.02 1538.12 1204.8 1536.61L1499 1491.19C1505.11 1490.24 1510.58 1486.89 1514.18 1481.87L1755.99 1145.01C1758.88 1140.98 1760.4 1136.13 1760.3 1131.18L1753.56 765.15C1753.4 756.655 1748.57 748.938 1741 745.081L1506.02 625.35C1498.45 621.493 1489.37 622.123 1482.4 626.99L1182.32 836.677C1178.25 839.516 1175.22 843.592 1173.66 848.298L1043.27 1241.93C1041.33 1247.79 1041.83 1254.19 1044.65 1259.68L1180.84 1524.4Z" stroke="url(#paint12_linear_8_556)" stroke-width="4"/>
<path opacity="0.202899" d="M1139.09 1507.54C1143.15 1516.52 1152.5 1521.92 1162.32 1520.95L1456.25 1491.78C1462.4 1491.17 1468.05 1488.1 1471.92 1483.27L1728.55 1163.03C1731.66 1159.15 1733.43 1154.37 1733.59 1149.39L1745.29 787C1745.56 778.522 1741.14 770.581 1733.8 766.34L1506.86 635.315C1499.51 631.073 1490.42 631.22 1483.22 635.696L1175.23 827.024C1171 829.65 1167.74 833.574 1165.93 838.209L1016.91 1220.57C1014.66 1226.34 1014.83 1232.76 1017.38 1238.4L1139.09 1507.54Z" stroke="url(#paint13_linear_8_556)" stroke-width="4"/>
<path opacity="0.217391" d="M1098.49 1489.79C1102.08 1498.95 1111.1 1504.8 1120.92 1504.36L1413.69 1491.29C1419.88 1491.01 1425.7 1488.25 1429.82 1483.62L1700.19 1180.62C1703.51 1176.9 1705.53 1172.19 1705.95 1167.21L1735.69 809.37C1736.39 800.93 1732.4 792.788 1725.3 788.175L1506.93 646.366C1499.83 641.754 1490.77 641.418 1483.34 645.492L1168.54 818.216C1164.16 820.618 1160.68 824.379 1158.63 828.931L991.792 1199.16C989.245 1204.81 989.087 1211.25 991.353 1217.02L1098.49 1489.79Z" stroke="url(#paint14_linear_8_556)" stroke-width="4"/>
<path opacity="0.231884" d="M1059.07 1471.24C1062.19 1480.53 1070.85 1486.83 1080.65 1486.92L1371.39 1489.73C1377.59 1489.79 1383.56 1487.34 1387.94 1482.94L1670.94 1197.72C1674.47 1194.17 1676.74 1189.55 1677.41 1184.59L1724.77 832.181C1725.89 823.801 1722.33 815.48 1715.49 810.51L1506.2 658.453C1499.36 653.483 1490.35 652.667 1482.72 656.327L1162.2 810.266C1157.68 812.435 1154 816.021 1151.7 820.477L967.905 1177.77C965.065 1183.29 964.578 1189.72 966.553 1195.61L1059.07 1471.24Z" stroke="url(#paint15_linear_8_556)" stroke-width="4"/>
<path opacity="0.246377" d="M1020.87 1451.96C1023.51 1461.36 1031.8 1468.07 1041.55 1468.7L1329.39 1487.15C1335.6 1487.55 1341.7 1485.41 1346.31 1481.24L1640.84 1214.3C1644.57 1210.92 1647.09 1206.42 1648.01 1201.47L1712.49 855.352C1714.04 847.055 1710.91 838.577 1704.35 833.266L1504.61 671.519C1498.05 666.207 1489.11 664.915 1481.32 668.152L1156.17 803.185C1151.52 805.115 1147.64 808.514 1145.11 812.862L945.241 1156.46C942.114 1161.83 941.297 1168.25 942.977 1174.24L1020.87 1451.96Z" stroke="url(#paint16_linear_8_556)" stroke-width="4"/>
<path opacity="0.26087" d="M983.919 1432.01C986.072 1441.5 993.967 1448.61 1003.63 1449.76L1287.76 1483.55C1293.94 1484.29 1300.16 1482.49 1305 1478.55L1609.93 1230.3C1613.85 1227.12 1616.6 1222.73 1617.78 1217.82L1698.86 878.807C1700.82 870.613 1698.14 862.003 1691.88 856.365L1502.12 685.507C1495.86 679.869 1487.02 678.106 1479.07 680.912L1150.4 796.984C1145.63 798.666 1141.56 801.867 1138.8 806.095L923.784 1135.31C920.377 1140.52 919.232 1146.9 920.611 1152.97L983.919 1432.01Z" stroke="url(#paint17_linear_8_556)" stroke-width="4"/>
<path opacity="0.275362" d="M948.235 1411.48C949.902 1421.04 957.384 1428.52 966.938 1430.19L1246.53 1478.98C1252.68 1480.05 1259 1478.58 1264.04 1474.9L1578.24 1245.7C1582.33 1242.71 1585.32 1238.45 1586.75 1233.59L1683.87 902.466C1686.24 894.395 1684.01 885.676 1678.06 879.729L1498.69 700.357C1492.74 694.41 1484.02 692.183 1475.95 694.55L1144.83 791.669C1139.97 793.095 1135.71 796.089 1132.72 800.184L903.515 1114.38C899.837 1119.42 898.366 1125.74 899.439 1131.89L948.235 1411.48Z" stroke="url(#paint18_linear_8_556)" stroke-width="4"/>
<path opacity="0.289855" d="M913.839 1390.45C915.02 1400.04 922.07 1407.87 931.486 1410.05L1205.77 1473.46C1211.86 1474.87 1218.26 1473.74 1223.5 1470.33L1545.8 1260.44C1550.07 1257.66 1553.29 1253.55 1554.97 1248.74L1667.52 926.25C1670.29 918.323 1668.52 909.52 1662.9 903.281L1494.28 716.01C1488.66 709.772 1480.09 707.089 1471.92 709.012L1139.43 787.243C1134.47 788.408 1130.05 791.184 1126.84 795.134L884.413 1093.73C880.472 1098.58 878.677 1104.83 879.441 1111.04L913.839 1390.45Z" stroke="url(#paint19_linear_8_556)" stroke-width="4"/>
<path opacity="0.304348" d="M880.746 1368.98C881.441 1378.59 888.044 1386.74 897.293 1389.42L1165.5 1467.03C1171.52 1468.77 1177.99 1467.98 1183.41 1464.85L1512.67 1274.49C1517.09 1271.94 1520.54 1267.98 1522.46 1263.25L1649.83 950.082C1652.98 942.32 1651.67 933.455 1646.4 926.943L1488.86 732.403C1483.59 725.891 1475.19 722.762 1466.94 724.236L1134.14 783.708C1129.11 784.606 1124.52 787.154 1121.1 790.949L866.451 1073.44C862.258 1078.09 860.143 1084.25 860.595 1090.5L880.746 1368.98Z" stroke="url(#paint20_linear_8_556)" stroke-width="4"/>
<path opacity="0.318841" d="M864.374 1368.37L1125.79 1459.72C1131.71 1461.79 1138.22 1461.35 1143.81 1458.5L1478.88 1287.83C1483.45 1285.5 1487.11 1281.71 1489.28 1277.06L1630.79 973.886C1634.33 966.307 1633.47 957.405 1628.56 950.639L1482.4 749.473C1477.48 742.706 1469.28 739.142 1460.98 740.164L1128.91 781.062C1123.82 781.689 1119.09 784 1115.46 787.628L849.601 1053.55C845.164 1057.99 842.734 1064.05 842.872 1070.32L848.966 1347.17C849.177 1356.76 855.318 1365.21 864.374 1368.37Z" stroke="url(#paint21_linear_8_556)" stroke-width="4"/>
<path opacity="0.333333" d="M818.505 1325.07C818.235 1334.63 823.901 1343.35 832.736 1346.99L1086.66 1451.57C1092.47 1453.97 1099.01 1453.88 1104.76 1451.33L1444.47 1300.41C1449.18 1298.32 1453.05 1294.71 1455.46 1290.16L1610.43 997.585C1614.34 990.208 1613.94 981.294 1609.39 974.293L1474.87 767.154C1470.33 760.153 1462.35 756.165 1454.02 756.734L1123.71 779.302C1118.57 779.653 1113.69 781.719 1109.87 785.169L833.829 1034.14C829.161 1038.35 826.42 1044.28 826.243 1050.57L818.505 1325.07Z" stroke="url(#paint22_linear_8_556)" stroke-width="4"/>
<path opacity="0.347826" d="M789.363 1302.78C788.618 1312.27 793.795 1321.24 802.386 1325.34L1048.16 1442.63C1053.84 1445.34 1060.39 1445.6 1066.27 1443.36L1409.5 1312.22C1414.33 1310.37 1418.4 1306.95 1421.05 1302.51L1588.76 1021.11C1593.02 1013.95 1593.09 1005.05 1588.92 997.832L1466.26 785.381C1462.1 778.166 1454.36 773.768 1446.02 773.883L1118.47 778.421C1113.3 778.492 1108.3 780.305 1104.28 783.567L819.101 1015.25C814.213 1019.22 811.167 1025.02 810.674 1031.3L789.363 1302.78Z" stroke="url(#paint23_linear_8_556)" stroke-width="4"/>
<path opacity="0.362319" d="M761.536 1280.37C760.322 1289.78 765.002 1298.96 773.323 1303.5L1010.31 1432.93C1015.85 1435.95 1022.39 1436.57 1028.39 1434.63L1374.01 1323.22C1378.96 1321.63 1383.21 1318.41 1386.1 1314.08L1565.81 1044.38C1570.42 1037.46 1570.93 1028.59 1567.16 1021.18L1456.54 804.089C1452.77 796.681 1445.29 791.887 1436.98 791.55L1113.16 778.41C1107.97 778.199 1102.86 779.752 1098.66 782.815L805.378 996.941C800.281 1000.66 796.938 1006.31 796.129 1012.57L761.536 1280.37Z" stroke="url(#paint24_linear_8_556)" stroke-width="4"/>
<path opacity="0.376812" d="M735.019 1257.91C733.342 1267.2 737.515 1276.58 745.543 1281.55L973.164 1422.51C978.538 1425.84 985.046 1426.81 991.158 1425.2L1338.05 1333.39C1343.09 1332.06 1347.53 1329.05 1350.64 1324.86L1541.6 1067.33C1546.54 1060.67 1547.51 1051.86 1544.13 1044.28L1445.71 823.211C1442.33 815.632 1435.14 810.457 1426.88 809.67L1107.72 779.258C1102.53 778.763 1097.32 780.049 1092.95 782.904L792.617 979.267C787.326 982.727 783.692 988.211 782.569 994.433L735.019 1257.91Z" stroke="url(#paint25_linear_8_556)" stroke-width="4"/>
<path opacity="0.391304" d="M709.798 1235.48C707.667 1244.64 711.327 1254.17 719.04 1259.55L936.74 1411.43C941.935 1415.06 948.394 1416.38 954.595 1415.09L1301.66 1342.72C1306.79 1341.65 1311.4 1338.86 1314.73 1334.81L1516.16 1089.89C1521.42 1083.5 1522.84 1074.77 1519.87 1067.04L1433.75 842.682C1430.78 834.953 1423.89 829.414 1415.7 828.181L1102.12 780.952C1096.94 780.172 1091.65 781.184 1087.12 783.822L780.777 962.276C775.304 965.464 771.388 970.768 769.952 976.937L709.798 1235.48Z" stroke="url(#paint26_linear_8_556)" stroke-width="4"/>
<path opacity="0.405797" d="M685.859 1213.14C683.283 1222.15 686.424 1231.81 693.8 1237.58L901.068 1399.73C906.067 1403.64 912.459 1405.31 918.732 1404.35L1264.9 1351.18C1270.1 1350.38 1274.88 1347.82 1278.42 1343.93L1489.53 1112C1495.09 1105.89 1496.95 1097.27 1494.4 1089.41L1420.65 862.435C1418.1 854.578 1411.53 848.693 1403.43 847.019L1096.32 783.476C1091.16 782.409 1085.8 783.143 1081.12 785.555L769.809 946.013C764.168 948.921 759.979 954.03 758.234 960.132L685.859 1213.14Z" stroke="url(#paint27_linear_8_556)" stroke-width="4"/>
<path opacity="0.42029" d="M663.18 1190.98C660.171 1199.8 662.789 1209.57 669.808 1215.71L866.174 1387.46C870.96 1391.64 877.266 1393.66 883.594 1393.03L1227.82 1358.76C1233.08 1358.24 1238 1355.92 1241.75 1352.19L1461.75 1133.59C1467.6 1127.78 1469.89 1119.29 1467.76 1111.33L1406.42 882.404C1404.28 874.442 1398.05 868.23 1390.08 866.122L1090.26 786.811C1085.15 785.459 1079.73 785.909 1074.91 788.086L759.666 930.522C753.871 933.141 749.419 938.041 747.366 944.06L663.18 1190.98Z" stroke="url(#paint28_linear_8_556)" stroke-width="4"/>
<path opacity="0.434783" d="M641.739 1169.05C638.308 1177.68 640.4 1187.52 647.044 1194.01L832.078 1374.65C836.637 1379.1 842.839 1381.46 849.203 1381.17L1190.46 1365.45C1195.77 1365.21 1200.83 1363.13 1204.78 1359.58L1432.86 1154.61C1438.97 1149.11 1441.69 1140.76 1439.98 1132.72L1391.05 902.525C1389.34 894.48 1383.46 887.96 1375.64 885.426L1083.91 790.937C1078.86 789.3 1073.39 789.463 1068.45 791.398L750.295 915.844C744.362 918.165 739.657 922.843 737.302 928.764L641.739 1169.05Z" stroke="url(#paint29_linear_8_556)" stroke-width="4"/>
<path opacity="0.449275" d="M621.507 1147.43C617.667 1155.84 619.233 1165.73 625.484 1172.54L798.8 1361.37C803.117 1366.07 809.195 1368.77 815.579 1368.82L1152.89 1371.24C1158.23 1371.28 1163.41 1369.46 1167.55 1366.1L1402.89 1174.99C1409.26 1169.81 1412.39 1161.64 1411.11 1153.53L1374.55 922.732C1373.27 914.628 1367.77 907.821 1360.11 904.869L1077.23 795.833C1072.25 793.914 1066.76 793.786 1061.69 795.472L741.645 902.015C735.588 904.031 730.641 908.475 727.989 914.282L621.507 1147.43Z" stroke="url(#paint30_linear_8_556)" stroke-width="4"/>
<path opacity="0.463768" d="M602.454 1126.18C598.219 1134.35 599.26 1144.26 605.101 1151.37L766.357 1347.66C770.417 1352.6 776.354 1355.63 782.739 1356.02L1115.14 1376.13C1120.5 1376.46 1125.79 1374.9 1130.12 1371.73L1371.91 1194.67C1378.51 1189.84 1382.05 1181.85 1381.19 1173.71L1356.94 942.963C1356.08 934.821 1350.96 927.748 1343.5 924.391L1070.18 801.474C1065.29 799.274 1059.79 798.853 1054.62 800.283L733.661 889.068C727.495 890.774 722.318 894.97 719.374 900.65L602.454 1126.18Z" stroke="url(#paint31_linear_8_556)" stroke-width="4"/>
<path opacity="0.478261" d="M584.545 1105.36C579.93 1113.27 580.448 1123.17 585.865 1130.56L734.76 1333.57C738.552 1338.74 744.328 1342.09 750.697 1342.82L1077.28 1380.11C1082.63 1380.72 1088.03 1379.43 1092.53 1376.47L1339.95 1213.62C1346.77 1209.13 1350.7 1201.36 1350.27 1193.21L1338.22 963.155C1337.79 955 1333.07 947.682 1325.81 943.93L1062.73 807.834C1057.95 805.358 1052.44 804.641 1047.18 805.809L726.287 877.035C720.029 878.424 714.634 882.362 711.404 887.899L584.545 1105.36Z" stroke="url(#paint32_linear_8_556)" stroke-width="4"/>
<path opacity="0.492754" d="M567.742 1085.04C562.763 1092.68 562.763 1102.53 567.742 1110.17L704.022 1319.15C707.531 1324.53 713.13 1328.2 719.465 1329.27L1039.35 1383.18C1044.69 1384.08 1050.18 1383.07 1054.84 1380.32L1307.07 1231.78C1314.09 1227.64 1318.4 1220.11 1318.4 1211.96L1318.4 983.247C1318.4 975.101 1314.09 967.563 1307.07 963.429L1054.84 814.886C1050.18 812.138 1044.69 811.125 1039.35 812.025L719.465 865.942C713.13 867.01 707.531 870.678 704.022 876.059L567.742 1085.04Z" stroke="url(#paint33_linear_8_556)" stroke-width="4"/>
<path opacity="0.507246" d="M552.004 1065.27C546.677 1072.61 546.164 1082.4 550.694 1090.26L674.149 1304.45C677.363 1310.03 682.768 1314 689.05 1315.41L1001.4 1385.35C1006.71 1386.54 1012.27 1385.81 1017.1 1383.28L1273.33 1249.1C1280.53 1245.33 1285.2 1238.04 1285.63 1229.93L1297.51 1003.18C1297.94 995.066 1294.05 987.33 1287.29 982.828L1046.48 822.6C1041.95 819.585 1036.49 818.274 1031.09 818.902L713.136 855.812C706.742 856.555 700.951 859.943 697.171 865.154L552.004 1065.27Z" stroke="url(#paint34_linear_8_556)" stroke-width="4"/>
<path opacity="0.521739" d="M537.288 1046.1C531.631 1053.13 530.613 1062.83 534.683 1070.88L645.146 1289.52C648.055 1295.28 653.249 1299.55 659.46 1301.29L963.488 1386.62C968.755 1388.1 974.378 1387.65 979.345 1385.36L1238.78 1265.55C1246.14 1262.15 1251.17 1255.13 1252.01 1247.07L1275.58 1022.9C1276.42 1014.84 1272.97 1006.93 1266.48 1002.07L1037.62 830.946C1033.23 827.669 1027.83 826.062 1022.37 826.413L707.242 846.666C700.805 847.08 694.837 850.178 690.794 855.206L537.288 1046.1Z" stroke="url(#paint35_linear_8_556)" stroke-width="4"/>
<path opacity="0.536232" d="M523.547 1027.58C517.578 1034.29 516.062 1043.87 519.665 1052.09L617.015 1274.41C619.608 1280.33 624.574 1284.89 630.696 1286.96L925.657 1387C930.866 1388.76 936.536 1388.61 941.637 1386.55L1203.49 1281.09C1210.98 1278.07 1216.34 1271.33 1217.61 1263.35L1252.61 1042.34C1253.88 1034.36 1250.86 1026.3 1244.66 1021.11L1028.22 839.891C1024 836.36 1018.66 834.457 1013.16 834.528L701.722 838.52C695.258 838.603 689.127 841.402 684.831 846.233L523.547 1027.58Z" stroke="url(#paint36_linear_8_556)" stroke-width="4"/>
<path opacity="0.550725" d="M510.732 1009.77C504.47 1016.15 502.467 1025.57 505.595 1033.94L589.755 1259.16C592.023 1265.23 596.746 1270.06 602.761 1272.47L887.96 1386.5C893.094 1388.55 898.796 1388.69 904.022 1386.88L1167.5 1295.68C1175.12 1293.04 1180.8 1286.61 1182.47 1278.72L1228.65 1061.46C1230.33 1053.58 1227.76 1045.39 1221.87 1039.88L1018.27 849.402C1014.23 845.624 1008.96 843.427 1003.44 843.214L696.516 831.386C690.042 831.136 683.763 833.629 679.223 838.251L510.732 1009.77Z" stroke="url(#paint37_linear_8_556)" stroke-width="4"/>
<path opacity="0.565217" d="M498.792 992.707C492.256 998.731 489.778 1007.98 492.425 1016.47L563.363 1243.84C565.297 1250.03 569.761 1255.13 575.653 1257.85L850.442 1385.13C855.487 1387.47 861.208 1387.9 866.545 1386.35L1130.89 1309.29C1138.6 1307.04 1144.59 1300.93 1146.67 1293.16L1203.73 1080.2C1205.81 1072.44 1203.69 1064.15 1198.13 1058.35L1007.73 859.443C1003.88 855.427 998.714 852.939 993.177 852.441L691.563 825.273C685.096 824.691 678.684 826.869 673.91 831.27L498.792 992.707Z" stroke="url(#paint38_linear_8_556)" stroke-width="4"/>
<path opacity="0.57971" d="M487.673 976.431C480.884 982.094 477.942 991.148 480.106 999.72L537.833 1228.47C539.425 1234.78 543.616 1240.12 549.366 1243.17L813.151 1382.92C818.092 1385.54 823.816 1386.27 829.254 1384.97L1093.71 1321.9C1101.51 1320.04 1107.78 1314.26 1110.25 1306.64L1177.87 1098.52C1180.35 1090.9 1178.68 1082.53 1173.47 1076.45L996.584 869.981C992.947 865.735 987.888 862.96 982.353 862.173L686.801 820.188C680.358 819.272 673.829 821.129 668.832 825.298L487.673 976.431Z" stroke="url(#paint39_linear_8_556)" stroke-width="4"/>
<path opacity="0.594203" d="M477.32 960.98C470.298 966.272 466.908 975.104 468.585 983.735L513.155 1213.12C514.399 1219.52 518.303 1225.09 523.895 1228.45L776.133 1379.88C780.953 1382.77 786.667 1383.8 792.194 1382.77L1056.04 1333.49C1063.89 1332.02 1070.43 1326.59 1073.29 1319.13L1151.12 1116.36C1153.99 1108.9 1152.77 1100.49 1147.92 1094.14L984.814 880.977C981.397 876.512 976.463 873.453 970.944 872.378L682.17 816.131C675.768 814.884 669.138 816.413 663.93 820.339L477.32 960.98Z" stroke="url(#paint40_linear_8_556)" stroke-width="4"/>
<path opacity="0.608696" d="M467.676 946.39C460.443 951.301 456.619 959.889 457.81 968.55L489.319 1197.82C490.209 1204.3 493.813 1210.09 499.229 1213.75L739.431 1376.03C744.117 1379.2 749.805 1380.52 755.408 1379.76L1017.93 1344.04C1025.82 1342.97 1032.6 1337.88 1035.84 1330.6L1123.51 1133.69C1126.75 1126.41 1126 1117.98 1121.51 1111.39L972.397 892.395C969.214 887.721 964.421 884.383 958.933 883.019L677.609 813.101C671.265 811.525 664.55 812.722 659.142 816.394L467.676 946.39Z" stroke="url(#paint41_linear_8_556)" stroke-width="4"/>
<path opacity="0.623188" d="M458.683 932.69C451.26 937.212 447.02 945.533 447.725 954.198L466.311 1182.63C466.843 1189.16 470.134 1195.15 475.359 1199.1L703.088 1371.4C707.625 1374.83 713.272 1376.46 718.939 1375.97L979.453 1353.53C987.366 1352.85 994.367 1348.13 997.973 1341.06L1095.09 1150.46C1098.69 1143.38 1098.39 1134.95 1094.29 1128.15L959.319 904.196C956.383 899.324 951.745 895.713 946.302 894.061L673.059 811.095C666.79 809.191 660.006 810.051 654.411 813.46L458.683 932.69Z" stroke="url(#paint42_linear_8_556)" stroke-width="4"/>
<path opacity="0.637681" d="M450.282 919.906C442.689 924.032 438.051 932.067 438.273 940.706L444.115 1167.57C444.284 1174.14 447.251 1180.32 452.268 1184.55L667.146 1366C671.518 1369.69 677.109 1371.62 682.828 1371.41L940.672 1361.96C948.584 1361.67 955.79 1357.33 959.748 1350.47L1065.89 1166.63C1069.85 1159.78 1070 1151.37 1066.3 1144.37L945.564 916.342C942.887 911.285 938.42 907.407 933.037 905.467L668.459 810.101C662.281 807.874 655.446 808.395 649.677 811.531L450.282 919.906Z" stroke="url(#paint43_linear_8_556)" stroke-width="4"/>
<path opacity="0.652174" d="M442.412 908.061C434.672 911.786 429.654 919.514 429.398 928.1L422.712 1152.71C422.516 1159.29 425.149 1165.64 429.943 1170.14L631.643 1359.88C635.837 1363.83 641.357 1366.05 647.114 1366.13L901.653 1369.31C909.543 1369.41 916.933 1365.46 921.23 1358.84L1035.96 1182.17C1040.26 1175.56 1040.86 1167.2 1037.56 1160.03L931.122 928.793C928.714 923.563 924.433 919.426 919.123 917.2L663.752 810.11C657.682 807.564 650.813 807.741 644.882 810.596L442.412 908.061Z" stroke="url(#paint44_linear_8_556)" stroke-width="4"/>
<path opacity="0.666667" d="M435.011 897.174C427.147 900.494 421.768 907.897 421.041 916.403L402.082 1138.07C401.52 1144.64 403.808 1151.14 408.364 1155.91L596.617 1353.06C600.618 1357.25 606.053 1359.77 611.835 1360.13L862.462 1375.59C870.31 1376.07 877.863 1372.51 882.485 1366.15L1005.34 1197.05C1009.97 1190.69 1011.02 1182.41 1008.13 1175.09L915.981 941.511C913.855 936.121 909.773 931.733 904.552 929.223L658.881 811.105C652.935 808.246 646.048 808.079 639.97 810.645L435.011 897.174Z" stroke="url(#paint45_linear_8_556)" stroke-width="4"/>
<path opacity="0.681159" d="M428.02 887.26C420.052 890.171 414.334 897.232 413.142 905.631L382.204 1123.69C381.275 1130.24 383.209 1136.87 387.513 1141.89L562.104 1345.57C565.898 1350 571.232 1352.82 577.027 1353.46L823.162 1380.8C830.951 1381.66 838.644 1378.5 843.575 1372.41L974.092 1211.24C979.023 1205.15 980.515 1196.97 978.049 1189.53L900.135 954.454C898.3 948.92 894.433 944.289 889.314 941.498L653.79 813.069C647.984 809.903 641.096 809.389 634.884 811.659L428.02 887.26Z" stroke="url(#paint46_linear_8_556)" stroke-width="4"/>
<path opacity="0.695652" d="M421.374 878.33C413.325 880.831 407.29 887.535 405.643 895.8L363.051 1109.62C361.756 1116.12 363.33 1122.87 367.368 1128.12L528.136 1337.44C531.711 1342.1 536.929 1345.21 542.723 1346.14L783.819 1384.94C791.528 1386.18 799.34 1383.42 804.565 1377.62L942.251 1224.7C947.476 1218.9 949.399 1210.84 947.36 1203.31L883.577 967.585C882.045 961.92 878.405 957.056 873.402 953.987L648.424 815.979C642.773 812.513 635.902 811.653 629.571 813.621L421.374 878.33Z" stroke="url(#paint47_linear_8_556)" stroke-width="4"/>
<path opacity="0.710145" d="M415.013 870.392C406.906 872.483 400.575 878.813 398.484 886.921L344.6 1095.89C342.94 1102.32 344.145 1109.16 347.904 1114.64L494.747 1328.72C498.088 1333.59 503.176 1336.99 508.956 1338.21L744.496 1388.02C752.107 1389.63 760.016 1387.28 765.517 1381.78L909.871 1237.42C915.372 1231.92 917.719 1224.01 916.11 1216.4L866.307 980.863C865.084 975.084 861.685 969.996 856.814 966.654L642.731 819.812C637.251 816.053 630.413 814.848 623.978 816.507L415.013 870.392Z" stroke="url(#paint48_linear_8_556)" stroke-width="4"/>
<path opacity="0.724638" d="M408.874 863.45C400.73 865.13 394.127 871.076 391.605 878.999L326.82 1082.52C324.8 1088.87 325.63 1095.78 329.098 1101.47L461.963 1319.44C465.059 1324.52 470.001 1328.2 475.753 1329.71L705.254 1390.05C712.749 1392.02 720.733 1390.09 726.493 1384.9L877.001 1249.38C882.76 1244.2 885.521 1236.46 884.344 1228.8L848.32 994.249C847.417 988.371 844.272 983.07 839.545 979.461L636.659 824.539C631.365 820.497 624.578 818.948 618.054 820.294L408.874 863.45Z" stroke="url(#paint49_linear_8_556)" stroke-width="4"/>
<path opacity="0.73913" d="M402.897 857.504C394.738 858.775 387.887 864.323 384.947 872.04L309.684 1069.56C307.306 1075.8 307.758 1082.77 310.922 1088.65L429.814 1309.63C432.651 1314.9 437.434 1318.86 443.145 1320.67L666.156 1391.06C673.518 1393.39 681.554 1391.86 687.554 1387L843.692 1260.56C849.691 1255.71 852.853 1248.16 852.111 1240.48L829.62 1007.7C829.044 1001.74 826.165 996.242 821.597 992.37L630.161 830.132C625.066 825.814 618.347 823.924 611.748 824.952L402.897 857.504Z" stroke="url(#paint50_linear_8_556)" stroke-width="4"/>
<path opacity="0.753623" d="M397.021 852.549C388.868 853.415 381.793 858.556 378.45 866.042L293.161 1057.03C290.431 1063.14 290.5 1070.14 293.35 1076.2L398.322 1299.34C400.889 1304.8 405.498 1309.03 411.154 1311.12L627.259 1391.06C634.471 1393.73 642.538 1392.62 648.758 1388.1L809.995 1270.95C816.215 1266.43 819.766 1259.1 819.457 1251.42L810.209 1021.19C809.967 1015.16 807.367 1009.47 802.97 1005.34L623.188 836.555C618.307 831.973 611.673 829.745 605.016 830.452L397.021 852.549Z" stroke="url(#paint51_linear_8_556)" stroke-width="4"/>
<path opacity="0.768116" d="M391.186 848.579C383.06 849.044 375.786 853.768 372.056 861.002L277.217 1044.96C274.142 1050.92 273.825 1057.93 276.351 1064.15L367.51 1288.6C369.796 1294.23 374.216 1298.73 379.805 1301.11L588.623 1390.07C595.667 1393.08 603.743 1392.37 610.164 1388.2L775.961 1280.53C782.383 1276.36 786.308 1269.27 786.432 1261.62L790.092 1034.67C790.19 1028.59 787.881 1022.73 783.669 1018.35L615.697 843.776C611.044 838.94 604.51 836.377 597.81 836.76L391.186 848.579Z" stroke="url(#paint52_linear_8_556)" stroke-width="4"/>
<path opacity="0.782609" d="M365.708 856.914L261.821 1033.37C258.408 1039.16 257.704 1046.17 259.896 1052.53L337.399 1277.47C339.392 1283.26 343.61 1288.01 349.118 1290.68L550.302 1388.13C557.164 1391.45 565.226 1391.16 571.829 1387.35L741.642 1289.31C748.245 1285.49 752.529 1278.66 753.082 1271.05L769.278 1048.1C769.721 1041.99 767.714 1035.97 763.699 1031.35L607.645 851.755C603.232 846.676 596.816 843.784 590.088 843.842L385.332 845.584C377.255 845.652 369.806 849.953 365.708 856.914Z" stroke="url(#paint53_linear_8_556)" stroke-width="4"/>
<path opacity="0.797101" d="M379.404 843.548C371.395 843.227 363.797 847.098 359.349 853.766L246.938 1022.28C243.195 1027.9 242.104 1034.87 243.954 1041.35L308.005 1265.98C309.696 1271.91 313.697 1276.91 319.11 1279.86L512.351 1385.26C519.014 1388.89 527.042 1389 533.805 1385.56L707.088 1297.26C713.851 1293.82 718.479 1287.26 719.455 1279.73L747.775 1061.45C748.568 1055.33 746.873 1049.15 743.069 1044.3L598.994 860.452C594.833 855.143 588.551 851.928 581.811 851.658L379.404 843.548Z" stroke="url(#paint54_linear_8_556)" stroke-width="4"/>
<path opacity="0.811594" d="M373.343 842.454C365.423 841.751 357.701 845.189 352.924 851.545L232.533 1011.73C228.47 1017.13 226.992 1024.06 228.492 1030.65L279.342 1254.17C280.72 1260.23 284.492 1265.47 289.798 1268.71L474.82 1381.48C481.271 1385.42 489.243 1385.93 496.146 1382.86L672.351 1304.41C679.253 1301.33 684.206 1295.06 685.601 1287.64L725.594 1074.68C726.74 1068.57 725.367 1062.26 721.787 1057.18L589.705 869.827C585.808 864.3 579.676 860.768 572.94 860.17L373.343 842.454Z" stroke="url(#paint55_linear_8_556)" stroke-width="4"/>
<path opacity="0.826087" d="M367.098 842.282C359.285 841.205 351.465 844.207 346.379 850.235L218.57 1001.72C214.198 1006.9 212.335 1013.75 213.479 1020.43L251.424 1242.09C252.481 1248.26 256.009 1253.74 261.195 1257.25L437.759 1376.85C443.985 1381.07 451.88 1381.98 458.9 1379.28L637.48 1310.73C644.501 1308.04 649.76 1302.08 651.565 1294.78L702.748 1087.75C704.252 1081.67 703.21 1075.24 699.865 1069.95L579.745 879.835C576.124 874.103 570.157 870.261 563.441 869.335L367.098 842.282Z" stroke="url(#paint56_linear_8_556)" stroke-width="4"/>
<path opacity="0.84058" d="M360.613 843.007C352.926 841.567 345.034 844.131 339.662 849.815L205.013 992.27C200.343 997.21 198.098 1003.96 198.88 1010.72L224.259 1229.78C224.986 1236.05 228.259 1241.75 233.311 1245.54L401.214 1371.4C407.202 1375.89 414.999 1377.18 422.117 1374.87L602.525 1316.25C609.642 1313.94 615.189 1308.31 617.395 1301.16L679.253 1100.64C681.115 1094.61 680.414 1088.08 677.315 1082.58L569.083 890.43C565.746 884.507 559.961 880.363 553.279 879.111L360.613 843.007Z" stroke="url(#paint57_linear_8_556)" stroke-width="4"/>
<path opacity="0.855072" d="M353.839 844.604C346.296 842.81 338.357 844.938 332.722 850.263L191.824 983.397C186.87 988.078 184.247 994.715 184.663 1001.52L197.855 1217.29C198.244 1223.65 201.249 1229.56 206.155 1233.61L365.229 1365.16C370.967 1369.91 378.647 1371.58 385.839 1369.65L567.533 1320.97C574.725 1319.04 580.54 1313.75 583.136 1306.77L655.125 1113.31C657.346 1107.35 656.993 1100.73 654.153 1095.03L557.689 901.566C554.648 895.466 549.058 891.03 542.427 889.453L353.839 844.604Z" stroke="url(#paint58_linear_8_556)" stroke-width="4"/>
<path opacity="0.869565" d="M346.728 847.042C339.346 844.907 331.386 846.599 325.511 851.552L178.967 975.11C173.743 979.515 170.748 986.015 170.793 992.849L172.216 1204.67C172.26 1211.09 174.984 1217.2 179.732 1221.52L329.845 1358.18C335.322 1363.17 342.865 1365.21 350.11 1363.67L532.554 1324.89C539.799 1323.35 545.859 1318.42 548.835 1311.64L630.382 1125.73C632.962 1119.85 632.966 1113.16 630.394 1107.28L545.54 913.194C542.802 906.932 537.422 902.213 530.858 900.313L346.728 847.042Z" stroke="url(#paint59_linear_8_556)" stroke-width="4"/>
<path opacity="0.884058" d="M339.234 850.29C332.029 847.825 324.072 849.085 317.982 853.656L166.404 967.419C160.924 971.532 157.564 977.874 157.237 984.718L147.345 1191.94C147.036 1198.41 149.469 1204.71 154.046 1209.3L295.099 1350.51C300.306 1355.72 307.694 1358.13 314.97 1356.98L497.632 1328.04C504.909 1326.89 511.193 1322.32 514.533 1315.76L605.044 1137.86C607.981 1132.09 608.349 1125.35 606.056 1119.29L532.612 925.265C530.186 918.857 525.03 913.864 518.547 911.646L339.234 850.29Z" stroke="url(#paint60_linear_8_556)" stroke-width="4"/>
<path opacity="0.898551" d="M331.312 854.312C324.3 851.531 316.37 852.364 310.09 856.543L154.098 960.331C148.379 964.137 144.66 970.3 143.959 977.134L123.24 1179.17C122.574 1185.68 124.703 1192.15 129.097 1196.99L261.027 1342.19C265.954 1347.62 273.168 1350.37 280.454 1349.6L462.813 1330.43C470.099 1329.67 476.584 1325.48 480.275 1319.15L579.133 1149.69C582.425 1144.04 583.161 1137.27 581.158 1131.05L518.885 937.728C516.779 931.189 511.86 925.934 505.474 923.4L331.312 854.312Z" stroke="url(#paint61_linear_8_556)" stroke-width="4"/>
<path opacity="0.913043" d="M322.922 859.072C316.118 855.988 308.24 856.401 301.795 860.179L142.012 953.851C136.069 957.334 132.001 963.298 130.926 970.102L99.8987 1166.4C98.8693 1172.91 100.685 1179.55 104.884 1184.64L227.66 1333.27C232.299 1338.89 239.323 1341.98 246.597 1341.6L428.139 1332.08C435.413 1331.7 442.076 1327.9 446.102 1321.83L552.669 1161.17C556.314 1155.68 557.425 1148.88 555.721 1142.51L504.345 950.532C502.564 943.877 497.895 938.372 491.621 935.528L322.922 859.072Z" stroke="url(#paint62_linear_8_556)" stroke-width="4"/>
<path opacity="0.927536" d="M314.025 864.53C307.442 861.159 299.64 861.159 293.057 864.53L130.108 947.98C123.96 951.128 119.553 956.872 118.104 963.625L77.3156 1153.66C75.9189 1160.17 77.4096 1166.96 81.4027 1172.29L195.027 1323.81C199.371 1329.6 206.188 1333.01 213.428 1333.01L393.653 1333.01C400.893 1333.01 407.711 1329.6 412.054 1323.81L525.679 1172.29C529.672 1166.96 531.163 1160.17 529.766 1153.66L488.978 963.625C487.528 956.872 483.121 951.128 476.974 947.98L314.025 864.53Z" stroke="url(#paint63_linear_8_556)" stroke-width="4"/>
<path opacity="0.942029" d="M304.585 870.646C298.236 867.003 290.533 866.599 283.838 869.559L118.349 942.718C112.015 945.518 107.28 951.023 105.459 957.705L55.482 1141.01C53.7145 1147.49 54.8704 1154.42 58.646 1159.98L163.153 1313.84C167.196 1319.79 173.79 1323.51 180.975 1323.89L359.394 1333.24C366.579 1333.61 373.526 1330.61 378.169 1325.11L498.186 1183.02C502.522 1177.88 504.396 1171.11 503.316 1164.48L472.774 976.955C471.66 970.12 467.527 964.15 461.52 960.703L304.585 870.646Z" stroke="url(#paint64_linear_8_556)" stroke-width="4"/>
<path opacity="0.956522" d="M294.571 877.376C288.468 873.477 280.885 872.68 274.105 875.225L106.7 938.065C100.199 940.505 95.1486 945.752 92.9577 952.341L34.3883 1128.48C32.2471 1134.92 33.0587 1141.97 36.6058 1147.76L132.06 1303.43C135.796 1309.52 142.154 1313.53 149.263 1314.28L325.4 1332.79C332.509 1333.54 339.561 1330.94 344.483 1325.76L470.217 1193.33C474.89 1188.41 477.15 1181.68 476.395 1174.93L455.726 990.469C454.953 983.569 451.104 977.387 445.253 973.648L294.571 877.376Z" stroke="url(#paint65_linear_8_556)" stroke-width="4"/>
<path opacity="0.971014" d="M283.952 884.676C278.106 880.538 270.665 879.359 263.826 881.489L95.1241 934.016C88.4766 936.085 83.1244 941.055 80.568 947.531L14.0213 1116.11C11.5046 1122.49 11.9626 1129.65 15.2706 1135.66L101.765 1292.63C105.192 1298.85 111.298 1303.13 118.311 1304.24L291.706 1331.71C298.719 1332.82 305.851 1330.63 311.032 1325.77L441.8 1203.21C446.801 1198.53 449.451 1191.85 449.027 1185.01L437.832 1004.12C437.402 997.167 433.848 990.787 428.165 986.764L283.952 884.676Z" stroke="url(#paint66_linear_8_556)" stroke-width="4"/>
<path opacity="0.985507" d="M272.702 892.501C267.122 888.14 259.844 886.593 252.972 888.307L83.5873 930.564C76.814 932.254 71.1747 936.928 68.2581 943.27L-5.63354 1103.95C-8.52708 1110.24 -8.43131 1117.51 -5.37277 1123.72L72.2846 1281.49C75.3984 1287.81 81.2416 1292.36 88.1382 1293.83L258.346 1330.01C265.243 1331.47 272.431 1329.69 277.848 1325.18L412.961 1212.64C418.283 1208.21 421.324 1201.61 421.24 1194.69L419.091 1017.84C419.007 1010.86 415.756 1004.3 410.256 999.999L272.702 892.501Z" stroke="url(#paint67_linear_8_556)" stroke-width="4"/>
<path d="M260.797 900.803C255.492 896.237 248.396 894.336 241.519 895.637L72.0549 927.702C65.1774 929.003 59.2668 933.365 55.9962 939.553L-24.5939 1092.04C-27.8645 1098.23 -28.1392 1105.57 -25.3402 1111.98L43.6294 1270.06C46.4284 1276.48 51.9965 1281.27 58.7575 1283.08L225.351 1327.72C232.112 1329.53 239.33 1328.17 244.962 1324.01L383.731 1221.59C389.363 1217.44 392.796 1210.94 393.058 1203.95L399.506 1031.6C399.768 1024.6 396.831 1017.87 391.525 1013.3L260.797 900.803Z" stroke="url(#paint68_linear_8_556)" stroke-width="4"/>
<defs>
<linearGradient id="paint0_linear_8_556" x1="1767.91" y1="1645.24" x2="1584.03" y2="484.222" gradientUnits="userSpaceOnUse">
<stop stop-color="#FE54C1"/>
<stop offset="1" stop-color="#2F7BD3"/>
</linearGradient>
<linearGradient id="paint1_linear_8_556" x1="1716.15" y1="1644.5" x2="1594.36" y2="485.766" gradientUnits="userSpaceOnUse">
<stop stop-color="#FE54C1"/>
<stop offset="1" stop-color="#2F7BD3"/>
</linearGradient>
<linearGradient id="paint2_linear_8_556" x1="1664.74" y1="1642.17" x2="1604.31" y2="489.015" gradientUnits="userSpaceOnUse">
<stop stop-color="#FE54C1"/>
<stop offset="1" stop-color="#2F7BD3"/>
</linearGradient>
<linearGradient id="paint3_linear_8_556" x1="1613.78" y1="1638.29" x2="1613.78" y2="493.93" gradientUnits="userSpaceOnUse">
<stop stop-color="#FE54C1"/>
<stop offset="1" stop-color="#2F7BD3"/>
</linearGradient>
<linearGradient id="paint4_linear_8_556" x1="1563.34" y1="1632.9" x2="1622.69" y2="500.471" gradientUnits="userSpaceOnUse">
<stop stop-color="#FE54C1"/>
<stop offset="1" stop-color="#2F7BD3"/>
</linearGradient>
<linearGradient id="paint5_linear_8_556" x1="1513.51" y1="1626.05" x2="1630.95" y2="508.59" gradientUnits="userSpaceOnUse">
<stop stop-color="#FE54C1"/>
<stop offset="1" stop-color="#2F7BD3"/>
</linearGradient>
<linearGradient id="paint6_linear_8_556" x1="1464.34" y1="1617.77" x2="1638.49" y2="518.237" gradientUnits="userSpaceOnUse">
<stop stop-color="#FE54C1"/>
<stop offset="1" stop-color="#2F7BD3"/>
</linearGradient>
<linearGradient id="paint7_linear_8_556" x1="1415.93" y1="1608.12" x2="1645.23" y2="529.358" gradientUnits="userSpaceOnUse">
<stop stop-color="#FE54C1"/>
<stop offset="1" stop-color="#2F7BD3"/>
</linearGradient>
<linearGradient id="paint8_linear_8_556" x1="1368.33" y1="1597.15" x2="1651.08" y2="541.893" gradientUnits="userSpaceOnUse">
<stop stop-color="#FE54C1"/>
<stop offset="1" stop-color="#2F7BD3"/>
</linearGradient>
<linearGradient id="paint9_linear_8_556" x1="1321.61" y1="1584.93" x2="1656" y2="555.781" gradientUnits="userSpaceOnUse">
<stop stop-color="#FE54C1"/>
<stop offset="1" stop-color="#2F7BD3"/>
</linearGradient>
<linearGradient id="paint10_linear_8_556" x1="1275.82" y1="1571.51" x2="1659.9" y2="570.957" gradientUnits="userSpaceOnUse">
<stop stop-color="#FE54C1"/>
<stop offset="1" stop-color="#2F7BD3"/>
</linearGradient>
<linearGradient id="paint11_linear_8_556" x1="1231.04" y1="1556.95" x2="1662.73" y2="587.351" gradientUnits="userSpaceOnUse">
<stop stop-color="#FE54C1"/>
<stop offset="1" stop-color="#2F7BD3"/>
</linearGradient>
<linearGradient id="paint12_linear_8_556" x1="1187.3" y1="1541.33" x2="1664.44" y2="604.894" gradientUnits="userSpaceOnUse">
<stop stop-color="#FE54C1"/>
<stop offset="1" stop-color="#2F7BD3"/>
</linearGradient>
<linearGradient id="paint13_linear_8_556" x1="1144.66" y1="1524.71" x2="1664.96" y2="623.511" gradientUnits="userSpaceOnUse">
<stop stop-color="#FE54C1"/>
<stop offset="1" stop-color="#2F7BD3"/>
</linearGradient>
<linearGradient id="paint14_linear_8_556" x1="1103.16" y1="1507.16" x2="1664.27" y2="643.127" gradientUnits="userSpaceOnUse">
<stop stop-color="#FE54C1"/>
<stop offset="1" stop-color="#2F7BD3"/>
</linearGradient>
<linearGradient id="paint15_linear_8_556" x1="1062.84" y1="1488.75" x2="1662.3" y2="663.663" gradientUnits="userSpaceOnUse">
<stop stop-color="#FE54C1"/>
<stop offset="1" stop-color="#2F7BD3"/>
</linearGradient>
<linearGradient id="paint16_linear_8_556" x1="1023.73" y1="1469.56" x2="1659.02" y2="685.04" gradientUnits="userSpaceOnUse">
<stop stop-color="#FE54C1"/>
<stop offset="1" stop-color="#2F7BD3"/>
</linearGradient>
<linearGradient id="paint17_linear_8_556" x1="985.873" y1="1449.66" x2="1654.41" y2="707.177" gradientUnits="userSpaceOnUse">
<stop stop-color="#FE54C1"/>
<stop offset="1" stop-color="#2F7BD3"/>
</linearGradient>
<linearGradient id="paint18_linear_8_556" x1="949.285" y1="1429.13" x2="1648.43" y2="729.992" gradientUnits="userSpaceOnUse">
<stop stop-color="#FE54C1"/>
<stop offset="1" stop-color="#2F7BD3"/>
</linearGradient>
<linearGradient id="paint19_linear_8_556" x1="913.992" y1="1408.05" x2="1641.06" y2="753.401" gradientUnits="userSpaceOnUse">
<stop stop-color="#FE54C1"/>
<stop offset="1" stop-color="#2F7BD3"/>
</linearGradient>
<linearGradient id="paint20_linear_8_556" x1="880.009" y1="1386.5" x2="1632.28" y2="777.323" gradientUnits="userSpaceOnUse">
<stop stop-color="#FE54C1"/>
<stop offset="1" stop-color="#2F7BD3"/>
</linearGradient>
<linearGradient id="paint21_linear_8_556" x1="847.348" y1="1364.54" x2="1622.07" y2="801.672" gradientUnits="userSpaceOnUse">
<stop stop-color="#FE54C1"/>
<stop offset="1" stop-color="#2F7BD3"/>
</linearGradient>
<linearGradient id="paint22_linear_8_556" x1="816.019" y1="1342.27" x2="1610.44" y2="826.365" gradientUnits="userSpaceOnUse">
<stop stop-color="#FE54C1"/>
<stop offset="1" stop-color="#2F7BD3"/>
</linearGradient>
<linearGradient id="paint23_linear_8_556" x1="786.025" y1="1319.75" x2="1597.37" y2="851.319" gradientUnits="userSpaceOnUse">
<stop stop-color="#FE54C1"/>
<stop offset="1" stop-color="#2F7BD3"/>
</linearGradient>
<linearGradient id="paint24_linear_8_556" x1="757.363" y1="1297.07" x2="1582.87" y2="876.451" gradientUnits="userSpaceOnUse">
<stop stop-color="#FE54C1"/>
<stop offset="1" stop-color="#2F7BD3"/>
</linearGradient>
<linearGradient id="paint25_linear_8_556" x1="730.03" y1="1274.29" x2="1566.94" y2="901.679" gradientUnits="userSpaceOnUse">
<stop stop-color="#FE54C1"/>
<stop offset="1" stop-color="#2F7BD3"/>
</linearGradient>
<linearGradient id="paint26_linear_8_556" x1="704.015" y1="1251.51" x2="1549.59" y2="926.922" gradientUnits="userSpaceOnUse">
<stop stop-color="#FE54C1"/>
<stop offset="1" stop-color="#2F7BD3"/>
</linearGradient>
<linearGradient id="paint27_linear_8_556" x1="679.305" y1="1228.78" x2="1530.84" y2="952.1" gradientUnits="userSpaceOnUse">
<stop stop-color="#FE54C1"/>
<stop offset="1" stop-color="#2F7BD3"/>
</linearGradient>
<linearGradient id="paint28_linear_8_556" x1="655.881" y1="1206.19" x2="1510.71" y2="977.137" gradientUnits="userSpaceOnUse">
<stop stop-color="#FE54C1"/>
<stop offset="1" stop-color="#2F7BD3"/>
</linearGradient>
<linearGradient id="paint29_linear_8_556" x1="633.722" y1="1183.8" x2="1489.22" y2="1001.95" gradientUnits="userSpaceOnUse">
<stop stop-color="#FE54C1"/>
<stop offset="1" stop-color="#2F7BD3"/>
</linearGradient>
<linearGradient id="paint30_linear_8_556" x1="612.801" y1="1161.68" x2="1466.4" y2="1026.48" gradientUnits="userSpaceOnUse">
<stop stop-color="#FE54C1"/>
<stop offset="1" stop-color="#2F7BD3"/>
</linearGradient>
<linearGradient id="paint31_linear_8_556" x1="593.09" y1="1139.9" x2="1442.28" y2="1050.64" gradientUnits="userSpaceOnUse">
<stop stop-color="#FE54C1"/>
<stop offset="1" stop-color="#2F7BD3"/>
</linearGradient>
<linearGradient id="paint32_linear_8_556" x1="574.556" y1="1118.52" x2="1416.89" y2="1074.37" gradientUnits="userSpaceOnUse">
<stop stop-color="#FE54C1"/>
<stop offset="1" stop-color="#2F7BD3"/>
</linearGradient>
<linearGradient id="paint33_linear_8_556" x1="557.161" y1="1097.6" x2="1390.27" y2="1097.6" gradientUnits="userSpaceOnUse">
<stop stop-color="#FE54C1"/>
<stop offset="1" stop-color="#2F7BD3"/>
</linearGradient>
<linearGradient id="paint34_linear_8_556" x1="540.867" y1="1077.21" x2="1362.48" y2="1120.27" gradientUnits="userSpaceOnUse">
<stop stop-color="#FE54C1"/>
<stop offset="1" stop-color="#2F7BD3"/>
</linearGradient>
<linearGradient id="paint35_linear_8_556" x1="525.631" y1="1057.4" x2="1333.54" y2="1142.32" gradientUnits="userSpaceOnUse">
<stop stop-color="#FE54C1"/>
<stop offset="1" stop-color="#2F7BD3"/>
</linearGradient>
<linearGradient id="paint36_linear_8_556" x1="511.408" y1="1038.22" x2="1303.52" y2="1163.68" gradientUnits="userSpaceOnUse">
<stop stop-color="#FE54C1"/>
<stop offset="1" stop-color="#2F7BD3"/>
</linearGradient>
<linearGradient id="paint37_linear_8_556" x1="498.149" y1="1019.73" x2="1272.46" y2="1184.31" gradientUnits="userSpaceOnUse">
<stop stop-color="#FE54C1"/>
<stop offset="1" stop-color="#2F7BD3"/>
</linearGradient>
<linearGradient id="paint38_linear_8_556" x1="485.803" y1="1001.96" x2="1240.42" y2="1204.16" gradientUnits="userSpaceOnUse">
<stop stop-color="#FE54C1"/>
<stop offset="1" stop-color="#2F7BD3"/>
</linearGradient>
<linearGradient id="paint39_linear_8_556" x1="474.32" y1="984.966" x2="1207.45" y2="1223.18" gradientUnits="userSpaceOnUse">
<stop stop-color="#FE54C1"/>
<stop offset="1" stop-color="#2F7BD3"/>
</linearGradient>
<linearGradient id="paint40_linear_8_556" x1="463.643" y1="968.784" x2="1173.62" y2="1241.32" gradientUnits="userSpaceOnUse">
<stop stop-color="#FE54C1"/>
<stop offset="1" stop-color="#2F7BD3"/>
</linearGradient>
<linearGradient id="paint41_linear_8_556" x1="453.716" y1="953.451" x2="1138.98" y2="1258.55" gradientUnits="userSpaceOnUse">
<stop stop-color="#FE54C1"/>
<stop offset="1" stop-color="#2F7BD3"/>
</linearGradient>
<linearGradient id="paint42_linear_8_556" x1="444.481" y1="938.999" x2="1103.59" y2="1274.83" gradientUnits="userSpaceOnUse">
<stop stop-color="#FE54C1"/>
<stop offset="1" stop-color="#2F7BD3"/>
</linearGradient>
<linearGradient id="paint43_linear_8_556" x1="435.88" y1="925.457" x2="1067.53" y2="1290.14" gradientUnits="userSpaceOnUse">
<stop stop-color="#FE54C1"/>
<stop offset="1" stop-color="#2F7BD3"/>
</linearGradient>
<linearGradient id="paint44_linear_8_556" x1="427.851" y1="912.85" x2="1030.84" y2="1304.44" gradientUnits="userSpaceOnUse">
<stop stop-color="#FE54C1"/>
<stop offset="1" stop-color="#2F7BD3"/>
</linearGradient>
<linearGradient id="paint45_linear_8_556" x1="420.334" y1="901.199" x2="993.613" y2="1317.71" gradientUnits="userSpaceOnUse">
<stop stop-color="#FE54C1"/>
<stop offset="1" stop-color="#2F7BD3"/>
</linearGradient>
<linearGradient id="paint46_linear_8_556" x1="413.266" y1="890.522" x2="955.899" y2="1329.94" gradientUnits="userSpaceOnUse">
<stop stop-color="#FE54C1"/>
<stop offset="1" stop-color="#2F7BD3"/>
</linearGradient>
<linearGradient id="paint47_linear_8_556" x1="406.586" y1="880.832" x2="917.767" y2="1341.1" gradientUnits="userSpaceOnUse">
<stop stop-color="#FE54C1"/>
<stop offset="1" stop-color="#2F7BD3"/>
</linearGradient>
<linearGradient id="paint48_linear_8_556" x1="400.231" y1="872.139" x2="879.287" y2="1351.19" gradientUnits="userSpaceOnUse">
<stop stop-color="#FE54C1"/>
<stop offset="1" stop-color="#2F7BD3"/>
</linearGradient>
<linearGradient id="paint49_linear_8_556" x1="394.138" y1="864.448" x2="840.523" y2="1360.21" gradientUnits="userSpaceOnUse">
<stop stop-color="#FE54C1"/>
<stop offset="1" stop-color="#2F7BD3"/>
</linearGradient>
<linearGradient id="paint50_linear_8_556" x1="388.247" y1="857.763" x2="801.545" y2="1368.14" gradientUnits="userSpaceOnUse">
<stop stop-color="#FE54C1"/>
<stop offset="1" stop-color="#2F7BD3"/>
</linearGradient>
<linearGradient id="paint51_linear_8_556" x1="382.494" y1="852.081" x2="762.416" y2="1375" gradientUnits="userSpaceOnUse">
<stop stop-color="#FE54C1"/>
<stop offset="1" stop-color="#2F7BD3"/>
</linearGradient>
<linearGradient id="paint52_linear_8_556" x1="376.82" y1="847.398" x2="723.203" y2="1380.78" gradientUnits="userSpaceOnUse">
<stop stop-color="#FE54C1"/>
<stop offset="1" stop-color="#2F7BD3"/>
</linearGradient>
<linearGradient id="paint53_linear_8_556" x1="371.164" y1="843.704" x2="683.971" y2="1385.5" gradientUnits="userSpaceOnUse">
<stop stop-color="#FE54C1"/>
<stop offset="1" stop-color="#2F7BD3"/>
</linearGradient>
<linearGradient id="paint54_linear_8_556" x1="365.469" y1="840.988" x2="644.781" y2="1389.17" gradientUnits="userSpaceOnUse">
<stop stop-color="#FE54C1"/>
<stop offset="1" stop-color="#2F7BD3"/>
</linearGradient>
<linearGradient id="paint55_linear_8_556" x1="359.676" y1="839.233" x2="605.695" y2="1391.8" gradientUnits="userSpaceOnUse">
<stop stop-color="#FE54C1"/>
<stop offset="1" stop-color="#2F7BD3"/>
</linearGradient>
<linearGradient id="paint56_linear_8_556" x1="353.73" y1="838.421" x2="566.775" y2="1393.42" gradientUnits="userSpaceOnUse">
<stop stop-color="#FE54C1"/>
<stop offset="1" stop-color="#2F7BD3"/>
</linearGradient>
<linearGradient id="paint57_linear_8_556" x1="347.577" y1="838.53" x2="528.077" y2="1394.05" gradientUnits="userSpaceOnUse">
<stop stop-color="#FE54C1"/>
<stop offset="1" stop-color="#2F7BD3"/>
</linearGradient>
<linearGradient id="paint58_linear_8_556" x1="341.164" y1="839.534" x2="489.658" y2="1393.72" gradientUnits="userSpaceOnUse">
<stop stop-color="#FE54C1"/>
<stop offset="1" stop-color="#2F7BD3"/>
</linearGradient>
<linearGradient id="paint59_linear_8_556" x1="334.442" y1="841.406" x2="451.572" y2="1392.46" gradientUnits="userSpaceOnUse">
<stop stop-color="#FE54C1"/>
<stop offset="1" stop-color="#2F7BD3"/>
</linearGradient>
<linearGradient id="paint60_linear_8_556" x1="327.363" y1="844.114" x2="413.869" y2="1390.29" gradientUnits="userSpaceOnUse">
<stop stop-color="#FE54C1"/>
<stop offset="1" stop-color="#2F7BD3"/>
</linearGradient>
<linearGradient id="paint61_linear_8_556" x1="319.881" y1="847.626" x2="376.6" y2="1387.27" gradientUnits="userSpaceOnUse">
<stop stop-color="#FE54C1"/>
<stop offset="1" stop-color="#2F7BD3"/>
</linearGradient>
<linearGradient id="paint62_linear_8_556" x1="311.954" y1="851.905" x2="339.809" y2="1383.41" gradientUnits="userSpaceOnUse">
<stop stop-color="#FE54C1"/>
<stop offset="1" stop-color="#2F7BD3"/>
</linearGradient>
<linearGradient id="paint63_linear_8_556" x1="303.541" y1="856.914" x2="303.541" y2="1378.78" gradientUnits="userSpaceOnUse">
<stop stop-color="#FE54C1"/>
<stop offset="1" stop-color="#2F7BD3"/>
</linearGradient>
<linearGradient id="paint64_linear_8_556" x1="294.604" y1="862.612" x2="267.835" y2="1373.4" gradientUnits="userSpaceOnUse">
<stop stop-color="#FE54C1"/>
<stop offset="1" stop-color="#2F7BD3"/>
</linearGradient>
<linearGradient id="paint65_linear_8_556" x1="285.11" y1="868.958" x2="232.729" y2="1367.33" gradientUnits="userSpaceOnUse">
<stop stop-color="#FE54C1"/>
<stop offset="1" stop-color="#2F7BD3"/>
</linearGradient>
<linearGradient id="paint66_linear_8_556" x1="275.025" y1="875.907" x2="198.257" y2="1360.6" gradientUnits="userSpaceOnUse">
<stop stop-color="#FE54C1"/>
<stop offset="1" stop-color="#2F7BD3"/>
</linearGradient>
<linearGradient id="paint67_linear_8_556" x1="264.323" y1="883.415" x2="164.45" y2="1353.28" gradientUnits="userSpaceOnUse">
<stop stop-color="#FE54C1"/>
<stop offset="1" stop-color="#2F7BD3"/>
</linearGradient>
<linearGradient id="paint68_linear_8_556" x1="252.976" y1="891.434" x2="131.335" y2="1345.41" gradientUnits="userSpaceOnUse">
<stop stop-color="#FE54C1"/>
<stop offset="1" stop-color="#2F7BD3"/>
</linearGradient>
</defs>
</svg>
